<?xml version="1.0" encoding="UTF-8"?>
<svg id="Réteg_1" xmlns="http://www.w3.org/2000/svg" version="1.1" viewBox="0 0 163.65 141.73">
  <!-- Generator: Adobe Illustrator 30.4.0, SVG Export Plug-In . SVG Version: 2.1.4 Build 226)  -->
  <defs>
    <style>
      .st0, .st1 {
        fill: #fff;
      }

      .st1 {
        isolation: isolate;
        opacity: .5;
      }

      .st2 {
        opacity: .05;
      }
    </style>
  </defs>
  <g class="st2">
    <g>
      <polygon class="st0" points="0 0 81.81 0 40.91 23.62 0 0"/>
      <polygon class="st1" points="40.91 70.85 40.91 23.62 81.81 0 40.91 70.85"/>
      <polygon class="st1" points="40.91 70.85 72.01 41.57 81.81 47.24 40.91 70.85"/>
      <polygon class="st1" points="40.91 70.85 81.81 58.59 122.74 70.85 40.91 70.85"/>
      <polygon class="st0" points="40.91 70.85 122.74 70.85 81.81 94.47 40.91 70.85"/>
      <polygon class="st0" points="72.01 41.57 81.81 0 81.81 47.24 72.01 41.57"/>
      <polygon class="st0" points="81.81 58.59 81.81 47.24 122.74 70.85 81.81 58.59"/>
      <polygon class="st1" points="81.81 141.73 81.81 94.47 122.74 70.85 81.81 141.73"/>
      <polygon class="st0" points="91.64 41.57 81.81 0 122.74 70.85 91.64 41.57"/>
      <polygon class="st1" points="81.81 47.24 91.64 41.57 122.74 70.85 81.81 47.24"/>
      <polygon class="st0" points="81.81 0 163.65 0 122.74 23.62 81.81 0"/>
      <polygon class="st1" points="122.74 70.85 122.74 23.62 163.65 0 122.74 70.85"/>
    </g>
  </g>
</svg>