<?xml version="1.0" encoding="UTF-8"?><svg id="b" xmlns="http://www.w3.org/2000/svg" viewBox="0 0 100 100"><defs><style>.c{fill:#e40000;}.d{stroke:#e40000;}.d,.e{fill:none;stroke-linecap:round;stroke-linejoin:round;}.e{stroke:#fff;}</style></defs><path class="e" d="M44.778,97.576c-22.273-2.368-39.966-20.062-42.334-42.334"/><path class="e" d="M54.983,97.576c22.273-2.368,39.966-20.062,42.334-42.334"/><path class="e" d="M2.444,45.037C4.812,22.764,22.505,5.071,44.778,2.702"/><path class="e" d="M97.317,45.037c-2.368-22.273-20.062-39.966-42.334-42.334"/><circle class="c" cx="2.279" cy="50.139" r="1.494"/><circle class="c" cx="97.482" cy="50.139" r="1.494"/><circle class="c" cx="49.881" cy="2.538" r="1.494"/><circle class="c" cx="49.881" cy="50.139" r="1.494"/><circle class="c" cx="49.881" cy="97.741" r="1.494"/><line class="e" x1="49.881" y1="6.202" x2="49.881" y2="46.293"/><line class="e" x1="5.944" y1="50.139" x2="46.034" y2="50.139"/><line class="e" x1="49.881" y1="94.076" x2="49.881" y2="53.986"/><line class="e" x1="93.817" y1="50.139" x2="53.727" y2="50.139"/><line class="d" x1="49.881" y1="50.139" x2="75.956" y2="24.064"/><path class="e" d="M73.857,23.58c-6.345-5.732-14.753-9.223-23.977-9.223h0c-19.762,0-35.782,16.02-35.782,35.782h0c0,19.762,16.02,35.782,35.782,35.782h0c19.762,0,35.782-16.02,35.782-35.782h0c0-9.224-3.491-17.632-9.223-23.977"/><path class="e" d="M65.403,32.034c-4.173-3.581-9.593-5.749-15.523-5.749h0c-13.174,0-23.854,10.68-23.854,23.854h0c0,13.174,10.68,23.854,23.854,23.854h0c13.174,0,23.854-10.68,23.854-23.854h0c0-5.93-2.169-11.35-5.749-15.523"/><path class="e" d="M56.923,40.515c-1.974-1.447-4.408-2.303-7.042-2.303h0c-6.587,0-11.927,5.34-11.927,11.927h0c0,6.587,5.34,11.927,11.927,11.927h0c6.587,0,11.927-5.34,11.927-11.927h0c0-2.635-.856-5.068-2.303-7.042"/><circle class="c" cx="41.692" cy="77.903" r="1.494"/><circle class="c" cx="33.95" cy="59.079" r="1.494"/><circle class="c" cx="28.907" cy="28.65" r="1.494"/><circle class="c" cx="41.692" cy="33.74" r="1.494"/><circle class="c" cx="67.106" cy="44.325" r="1.494"/><circle class="c" cx="65.612" cy="60.382" r="1.494"/></svg>