<?xml version="1.0" encoding="UTF-8"?><svg id="b" xmlns="http://www.w3.org/2000/svg" viewBox="0 0 100 100"><defs><style>.c{fill:#e40000;}.d{stroke-dasharray:0 2.817;}.d,.e,.f,.g{fill:none;stroke-linecap:round;stroke-linejoin:round;}.d,.e,.g{stroke:#fff;}.e{stroke-dasharray:0 2.822;}.f{stroke:#e40000;}</style></defs><path class="g" d="M51.891,2.469c24.896.937,44.907,20.949,45.845,45.845"/><path class="g" d="M97.735,51.965c-.937,24.896-20.949,44.907-45.845,45.845"/><path class="g" d="M2.394,48.313C3.331,23.417,23.342,3.406,48.238,2.469"/><line class="g" x1="3.456" y1="60.355" x2="3.456" y2="60.355"/><path class="e" d="M2.937,57.582c-.217-1.384-.374-2.787-.469-4.208"/><line class="g" x1="2.394" y1="51.965" x2="2.394" y2="51.965"/><path class="g" d="M4.168,63.197c-.266-.936-.503-1.883-.713-2.841"/><line class="g" x1="7.189" y1="71.081" x2="7.189" y2="71.081"/><path class="d" d="M6.027,68.515c-.541-1.295-1.026-2.619-1.454-3.969"/><line class="g" x1="4.168" y1="63.197" x2="4.168" y2="63.197"/><line class="g" x1="2.394" y1="48.313" x2="5.415" y2="48.313"/><line class="g" x1="48.238" y1="97.81" x2="48.238" y2="94.789"/><line class="g" x1="51.891" y1="5.49" x2="51.891" y2="2.469"/><line class="g" x1="94.714" y1="51.965" x2="97.735" y2="51.965"/><path class="g" d="M48.238,97.81c-18.058-.68-33.546-11.394-41.049-26.729"/><circle class="g" cx="50.083" cy="50.157" r="34.067"/><path class="f" d="M48.238,9.471c-21.637.913-39.012,17.8-39.977,38.842"/><line class="g" x1="50.083" y1="19.856" x2="50.083" y2="23.913"/><line class="g" x1="34.932" y1="23.915" x2="36.96" y2="27.429"/><line class="g" x1="23.84" y1="35.007" x2="27.354" y2="37.035"/><line class="g" x1="19.781" y1="50.157" x2="23.838" y2="50.157"/><line class="g" x1="23.84" y1="65.308" x2="27.354" y2="63.279"/><line class="g" x1="34.932" y1="76.399" x2="36.96" y2="72.885"/><line class="g" x1="50.083" y1="80.459" x2="50.083" y2="76.401"/><line class="g" x1="65.233" y1="76.399" x2="63.205" y2="72.885"/><line class="g" x1="76.325" y1="65.308" x2="72.811" y2="63.279"/><line class="g" x1="80.384" y1="50.157" x2="76.327" y2="50.157"/><line class="g" x1="76.325" y1="35.007" x2="72.811" y2="37.035"/><line class="g" x1="65.233" y1="23.915" x2="63.205" y2="27.429"/><line class="g" x1="42.24" y1="20.888" x2="42.765" y2="22.848"/><line class="g" x1="28.656" y1="28.731" x2="30.091" y2="30.165"/><line class="g" x1="20.813" y1="42.315" x2="22.773" y2="42.84"/><line class="g" x1="20.813" y1="58" x2="22.773" y2="57.475"/><line class="g" x1="28.656" y1="71.584" x2="30.091" y2="70.149"/><line class="g" x1="42.24" y1="79.427" x2="42.765" y2="77.467"/><line class="g" x1="57.925" y1="79.427" x2="57.4" y2="77.467"/><line class="g" x1="71.509" y1="71.584" x2="70.074" y2="70.149"/><line class="g" x1="79.352" y1="58" x2="77.392" y2="57.475"/><line class="g" x1="79.352" y1="42.315" x2="77.392" y2="42.84"/><line class="g" x1="71.509" y1="28.731" x2="70.074" y2="30.165"/><line class="g" x1="57.925" y1="20.888" x2="57.4" y2="22.848"/><circle class="c" cx="50.083" cy="50.157" r="1.494"/><line class="f" x1="50.083" y1="50.157" x2="50.083" y2="30.696"/><line class="f" x1="50.083" y1="50.157" x2="65.445" y2="62.106"/></svg>