<?xml version="1.0" encoding="UTF-8"?><svg id="b" xmlns="http://www.w3.org/2000/svg" viewBox="0 0 100 100"><defs><style>.c{fill:#e40000;}.d{stroke:#e40000;}.d,.e{fill:none;stroke-linecap:round;stroke-linejoin:round;}.e{stroke:#fff;}</style></defs><circle class="c" cx="97.337" cy="50.139" r="1.494"/><path class="e" d="M2.055,48.618C2.843,23.477,23.078,3.243,48.218,2.455"/><path class="e" d="M2.055,51.661c.788,25.14,21.023,45.375,46.163,46.163"/><line class="e" x1="51.58" y1="5.49" x2="51.58" y2="2.469"/><path class="e" d="M51.58,2.469c23.793.896,43.125,19.213,45.609,42.566"/><line class="e" x1="51.58" y1="94.789" x2="51.58" y2="97.81"/><path class="e" d="M51.58,97.81c23.793-.896,43.125-19.213,45.609-42.566"/><path class="d" d="M81.743,71.095c-6.84,10.482-18.671,17.412-32.121,17.412s-25.281-6.93-32.121-17.412"/><path class="d" d="M83.802,67.539c2.653-5.212,4.149-11.112,4.149-17.362,0-20.48-16.062-37.207-36.275-38.275"/><path class="d" d="M15.441,67.539c-2.653-5.212-4.149-11.112-4.149-17.362,0-20.48,16.062-37.207,36.275-38.275"/><line class="d" x1="47.567" y1="14.924" x2="47.567" y2="11.902"/><line class="d" x1="20.117" y1="69.585" x2="17.5" y2="71.095"/><line class="d" x1="81.185" y1="66.028" x2="83.802" y2="67.539"/><polygon class="e" points="61.687 45.022 61.687 31.09 49.622 24.124 37.556 31.09 37.556 45.022 49.622 51.988 61.687 45.022"/><line class="e" x1="49.622" y1="38.056" x2="61.687" y2="31.09"/><line class="e" x1="49.622" y1="38.056" x2="37.556" y2="31.09"/><line class="e" x1="49.622" y1="38.056" x2="49.622" y2="51.988"/><polyline class="e" points="49.622 51.988 49.622 65.92 61.687 72.885 73.752 65.92 73.752 51.988 61.687 45.022"/><line class="e" x1="61.687" y1="58.954" x2="73.752" y2="51.988"/><line class="e" x1="61.687" y1="58.954" x2="49.622" y2="51.988"/><line class="e" x1="61.687" y1="58.954" x2="61.687" y2="72.885"/><line class="e" x1="37.556" y1="58.954" x2="25.491" y2="51.988"/><line class="e" x1="37.556" y1="58.954" x2="37.556" y2="72.885"/><line class="e" x1="33.885" y1="47.142" x2="37.556" y2="45.022"/><line class="e" x1="45.812" y1="68.119" x2="49.622" y2="65.92"/><line class="e" x1="41.898" y1="56.447" x2="37.556" y2="58.954"/><line class="e" x1="41.898" y1="70.378" x2="37.556" y2="72.885"/><polyline class="e" points="25.491 51.988 25.491 65.92 37.556 72.885"/><line class="e" x1="29.971" y1="49.401" x2="25.491" y2="51.988"/><line class="e" x1="45.613" y1="54.302" x2="49.622" y2="51.988"/></svg>