<?xml version="1.0" encoding="UTF-8"?><svg id="b" xmlns="http://www.w3.org/2000/svg" viewBox="0 0 100 100"><defs><style>.c{stroke:#e40000;}.c,.d{fill:none;stroke-linecap:round;stroke-linejoin:round;}.d{stroke:#fff;}</style></defs><path class="c" d="M97.565,48.618c-.788-25.14-21.023-45.375-46.163-46.163v7.925c20.766.781,37.457,17.473,38.238,38.238"/><path class="d" d="M10.12,51.661c.781,20.766,17.473,37.457,38.238,38.238"/><path class="d" d="M2.196,48.618C2.984,23.477,23.218,3.243,48.359,2.455"/><path class="c" d="M89.64,51.661c-.781,20.766-17.473,37.457-38.238,38.238v7.925c25.14-.788,45.375-21.023,46.163-46.163"/><path class="d" d="M2.196,51.661c.788,25.14,21.023,45.375,46.163,46.163"/><path class="d" d="M48.359,10.379c-20.766.781-37.457,17.473-38.238,38.238"/><circle class="d" cx="49.88" cy="38.055" r="11.927"/><path class="d" d="M49.398,53.632h.965c9.848,0,17.843,7.995,17.843,17.843H31.556c0-9.848,7.995-17.843,17.843-17.843Z"/></svg>