<?xml version="1.0" encoding="UTF-8"?><svg id="a" xmlns="http://www.w3.org/2000/svg" viewBox="0 0 633.68 286.07"><defs><style>.b{fill:#fff;}</style></defs><path class="b" d="M158.31,57.84c9.27,0,16.47,2.32,21.6,6.95,5.12,4.64,9.04,11.28,11.76,19.92l43.68,141.1h-38.4l-12.96-44.39h-84.47l8.4-34.07h65.99l-16.08-55.44h-51.84l-39.12,133.9H28.47l43.68-141.1c2.72-8.64,6.63-15.28,11.76-19.92,5.12-4.64,12.32-6.95,21.6-6.95h52.8Z"/><path class="b" d="M248.55,191.74h166.78v-34.8h-139.91c-3.85,0-7.4-.68-10.68-2.04s-6.12-3.24-8.52-5.64-4.28-5.19-5.64-8.4c-1.36-3.2-2.04-6.63-2.04-10.32v-45.83c0-3.85.68-7.4,2.04-10.68s3.24-6.12,5.64-8.52,5.19-4.28,8.4-5.64c3.2-1.36,6.63-2.04,10.32-2.04h156.94v34.07h-148.07v30.95h139.91c3.83,0,7.4.72,10.68,2.16s6.12,3.35,8.52,5.76c2.4,2.4,4.28,5.2,5.64,8.4s2.04,6.56,2.04,10.08v49.68c0,3.85-.72,7.4-2.16,10.68s-3.35,6.12-5.76,8.52-5.2,4.28-8.4,5.64-6.56,2.04-10.08,2.04h-175.66v-34.07h.01Z"/><path class="b" d="M466.89,84.72c0-3.85.68-7.4,2.04-10.68s3.24-6.12,5.64-8.52c2.4-2.4,5.19-4.28,8.4-5.64,3.2-1.36,6.63-2.04,10.32-2.04h140.39v34.07h-131.51v46.08h112.3v34.07h-112.3v53.75h-35.28V84.72h-.01.01Z"/></svg>