<?xml version="1.0" encoding="UTF-8"?><svg id="a" xmlns="http://www.w3.org/2000/svg" xmlns:xlink="http://www.w3.org/1999/xlink" viewBox="0 0 330.32 286.07"><defs><style>.p{fill:url(#k);}.q{fill:url(#c);}.r{fill:url(#d);}.s{fill:url(#l);}.t{fill:url(#h);}.u{fill:url(#o);}.v{fill:url(#j);}.w{fill:url(#g);}.x{fill:url(#m);}.y{fill:url(#e);}.z{fill:url(#i);}.aa{fill:url(#f);}.ab{fill:url(#b);}.ac{fill:url(#n);}.ad{fill:#f8000f;}</style><linearGradient id="b" x1="206.45" y1="553.89" x2="206.45" y2="696.92" gradientTransform="translate(0 -553.89)" gradientUnits="userSpaceOnUse"><stop offset="0" stop-color="#fef0f3"/><stop offset="1" stop-color="#ffccd1"/></linearGradient><linearGradient id="c" x1="123.87" y1="553.89" x2="123.87" y2="696.92" gradientTransform="translate(0 -553.89)" gradientUnits="userSpaceOnUse"><stop offset="0" stop-color="#ff6f82"/><stop offset="1" stop-color="#ff3a4e"/></linearGradient><linearGradient id="d" x1="247.74" y1="696.92" x2="247.74" y2="839.96" gradientTransform="translate(0 -553.89)" gradientUnits="userSpaceOnUse"><stop offset="0" stop-color="#fef0f3"/><stop offset="1" stop-color="#ffccd1"/></linearGradient><linearGradient id="e" x1="206.45" y1="696.92" x2="206.45" y2="839.96" gradientTransform="translate(0 -553.89)" gradientUnits="userSpaceOnUse"><stop offset="0" stop-color="#fe384e"/><stop offset="1" stop-color="#fc0119"/></linearGradient><linearGradient id="f" x1="165.16" y1="816.12" x2="330.32" y2="816.12" gradientTransform="translate(0 -553.89)" gradientUnits="userSpaceOnUse"><stop offset="0" stop-color="#d00007"/><stop offset="1" stop-color="#d50007"/></linearGradient><linearGradient id="g" x1="82.58" y1="696.92" x2="82.58" y2="839.96" gradientTransform="translate(0 -553.89)" gradientUnits="userSpaceOnUse"><stop offset="0" stop-color="#fef0f3"/><stop offset="1" stop-color="#ffccd1"/></linearGradient><linearGradient id="h" x1="0" y1="816.12" x2="165.16" y2="816.12" gradientTransform="translate(0 -553.89)" gradientUnits="userSpaceOnUse"><stop offset="0" stop-color="#d00007"/><stop offset="1" stop-color="#d50007"/></linearGradient><linearGradient id="i" x1="41.29" y1="696.92" x2="41.29" y2="839.96" gradientTransform="translate(0 -553.89)" gradientUnits="userSpaceOnUse"><stop offset="0" stop-color="#fe384e"/><stop offset="1" stop-color="#fc0119"/></linearGradient><linearGradient id="j" x1="-375.296" y1="163.197" x2="-409.446" y2="58.067" gradientTransform="translate(-66.445 391.504) rotate(162) scale(.67 .77) skewX(-34.91)" gradientUnits="userSpaceOnUse"><stop offset="0" stop-color="#fef0f3"/><stop offset="1" stop-color="#ffccd1"/></linearGradient><linearGradient id="k" x1="206.45" y1="696.92" x2="206.45" y2="756.04" gradientTransform="translate(0 -553.89)" gradientUnits="userSpaceOnUse"><stop offset="0" stop-color="#ff6f82"/><stop offset="1" stop-color="#ff3a4e"/></linearGradient><linearGradient id="l" x1="123.87" y1="696.92" x2="123.87" y2="839.96" gradientTransform="translate(0 -553.89)" gradientUnits="userSpaceOnUse"><stop offset="0" stop-color="#ff6f82"/><stop offset="1" stop-color="#ff3a4e"/></linearGradient><linearGradient id="m" x1="180.194" y1="195.04" x2="262.784" y2="147.37" gradientTransform="translate(414.263 132.176) rotate(120)" gradientUnits="userSpaceOnUse"><stop offset="0" stop-color="#fef0f3"/><stop offset="1" stop-color="#ffccd1"/></linearGradient><linearGradient id="n" x1="165.16" y1="696.92" x2="165.16" y2="744.6" gradientTransform="translate(0 -553.89)" gradientUnits="userSpaceOnUse"><stop offset="0" stop-color="#fef0f3"/><stop offset="1" stop-color="#ffccd1"/></linearGradient><linearGradient id="o" x1="538.108" y1="659.453" x2="579.398" y2="683.293" gradientTransform="translate(466.145 -268.658) rotate(42) scale(.67 .77) skewX(-34.91)" gradientUnits="userSpaceOnUse"><stop offset="0" stop-color="#ff6f82"/><stop offset="1" stop-color="#ff3a4e"/></linearGradient></defs><polygon class="ad" points="165.16 0 247.74 143.03 82.58 143.03 165.16 0"/><polygon class="ab" points="165.16 95.36 165.16 0 247.74 143.03 165.16 95.36"/><polygon class="q" points="165.16 95.36 82.58 143.03 165.16 0 165.16 95.36"/><polygon class="r" points="165.16 286.07 247.74 143.03 330.32 286.07 165.16 286.07"/><polygon class="y" points="247.74 238.39 165.16 286.07 247.74 143.03 247.74 238.39"/><polygon class="aa" points="247.74 238.39 330.32 286.07 165.16 286.07 247.74 238.39"/><polygon class="w" points="0 286.07 165.16 286.07 82.58 143.03 0 286.07"/><polygon class="t" points="82.58 238.39 0 286.07 165.16 286.07 82.58 238.39"/><polygon class="z" points="82.58 238.39 82.58 143.03 0 286.07 82.58 238.39"/><polygon class="ad" points="165.16 190.71 247.74 143.03 165.16 286.07 165.16 190.71"/><polygon class="v" points="184.98 202.15 247.74 143.03 165.16 286.07 184.98 202.15"/><polygon class="p" points="184.98 202.15 165.16 190.71 247.74 143.03 184.98 202.15"/><polygon class="s" points="165.16 190.71 165.16 286.07 82.58 143.03 165.16 190.71"/><polygon class="ad" points="145.34 202.15 165.16 286.07 82.58 143.03 145.34 202.15"/><polygon class="x" points="145.34 202.15 165.16 190.71 165.16 286.07 145.34 202.15"/><polygon class="ac" points="165.16 190.71 82.58 143.03 247.74 143.03 165.16 190.71"/><polygon class="u" points="165.16 167.82 82.58 143.03 247.74 143.03 165.16 167.82"/><polygon class="ad" points="165.16 167.82 165.16 190.71 82.58 143.03 165.16 167.82"/></svg>